<svg xmlns="http://www.w3.org/2000/svg" viewBox="0 0 226.68 37.14"><defs><style>.cls-1{fill:#00b7b7;}.cls-2{fill:#2483c5;}.cls-3{fill:#0086d1;}</style></defs><title>Asset 1</title><g id="Layer_2" data-name="Layer 2"><g id="Layer_1-2" data-name="Layer 1"><path class="cls-1" d="M162,32.38c-2.65,0-4-1.36-4-3.92V11.85h7.23V7.34H158V.07h-3.46l-1.69,7.06-.06.21H148.7v4.51h4v17c0,5.56,2.79,8.25,8.51,8.25a15.29,15.29,0,0,0,3.19-.36c.38-.09,1.61-.5,2-.57l.18,0V31.46A20.15,20.15,0,0,1,162,32.38Z"/><path class="cls-2" d="M12.84,7.21A18.47,18.47,0,0,0,5.47,9l-.4.17V7.34H0V36.77H5.32V13.59l.15-.08a12.59,12.59,0,0,1,5.59-1.42c2.61,0,4,1.39,4,4V36.77H20.5V15.09a7.63,7.63,0,0,0-2.13-5.86A7.66,7.66,0,0,0,12.84,7.21Z"/><rect class="cls-2" x="26.28" y="7.34" width="5.32" height="29.43"/><path class="cls-2" d="M43.77,31.12a4.42,4.42,0,0,1-1.39-3.6V16.65A4.49,4.49,0,0,1,43.77,13c.92-.76,2.46-1.13,4.69-1.13a24.06,24.06,0,0,1,6.09.79V7.83A25.57,25.57,0,0,0,47.81,7c-7.25,0-10.76,3-10.76,9.25V27.83c0,6.23,3.51,9.25,10.76,9.25a29.5,29.5,0,0,0,6.8-.82V31.35a20.18,20.18,0,0,1-6,.9C46.26,32.25,44.68,31.88,43.77,31.12Z"/><path class="cls-1" d="M87.18,7.21a16.6,16.6,0,0,0-8.31,2.41l-.19.11-.16-.17A7.21,7.21,0,0,0,72.9,7.21,18.81,18.81,0,0,0,65.36,9L65,9.12V7.34H59.89V36.77h5.33V13.59l.15-.08A12.46,12.46,0,0,1,71,12.09c2.61,0,4,1.39,4,4V36.77H80.4V16c0-.8,0-1.66,0-2.35h0a10.31,10.31,0,0,1,5.7-1.59c2.65,0,4.05,1.39,4.05,4V36.77h5.4V15.09A7.7,7.7,0,0,0,93.38,9.2,8.88,8.88,0,0,0,87.18,7.21Z"/><path class="cls-1" d="M111,6.71c-3.49,0-6.12.87-7.82,2.58a9.57,9.57,0,0,0-2.55,7V27.52c0,6.43,3.88,9.56,11.88,9.56a30.76,30.76,0,0,0,7.75-.94v-4.8a25.42,25.42,0,0,1-7.22,1c-2.61,0-4.48-.42-5.55-1.25a4.65,4.65,0,0,1-1.66-3.93V24.5h15.43V16.27a9.7,9.7,0,0,0-2.48-7C117.15,7.58,114.53,6.71,111,6.71ZM116.28,20v.28H105.86V16.34c0-3.44,1.75-5.18,5.21-5.18s5.21,1.74,5.21,5.18Z"/><path class="cls-1" d="M136.06,6.71c-3.5,0-6.13.87-7.82,2.58a9.56,9.56,0,0,0-2.56,7V27.52c0,6.43,3.89,9.56,11.88,9.56a30.84,30.84,0,0,0,7.76-.94v-4.8a25.47,25.47,0,0,1-7.22,1c-2.61,0-4.48-.42-5.56-1.25a4.7,4.7,0,0,1-1.66-3.93V24.5h15.44V16.27a9.71,9.71,0,0,0-2.49-7C142.19,7.58,139.57,6.71,136.06,6.71ZM141.3,20v.28H130.88V16.34c0-3.44,1.75-5.18,5.21-5.18s5.21,1.74,5.21,5.18Z"/><path class="cls-3" d="M212.37,27.73a5.16,5.16,0,0,1-2.37.35,4.5,4.5,0,0,1-1.26-.33l-.09,0a22.51,22.51,0,0,1-2.12-1c-3-1.72-21.06-12.17-23.05-13.29-.21-.11-.41-.21-.62-.3a4.65,4.65,0,0,0-2.08-.44,4.58,4.58,0,0,0-4.58,4.56v15a4.65,4.65,0,0,0,4.66,4.55H208.4a4.49,4.49,0,0,0,4.47-4.56V27.45A4.68,4.68,0,0,1,212.37,27.73Z"/><path class="cls-1" d="M215.41,16.28,224,24.89a1.54,1.54,0,0,0,2.63-1.11l0-9.75V3.9a1.56,1.56,0,0,0-1.55-1.57,1.47,1.47,0,0,0-1.08.45l-8.56,8.55,0,0,0,0,0,0a1.51,1.51,0,0,1-2.57-1.08V10s0-4.95,0-4.95,0-.49,0-1A4.57,4.57,0,0,0,208.34,0H180.73a4.56,4.56,0,0,0-4.55,4.56V9.13A2,2,0,0,1,176.5,9a4.82,4.82,0,0,1,2-.4,5.41,5.41,0,0,1,2,.38l.44.18a11.54,11.54,0,0,1,1.57.79c3,1.64,18.62,10.74,23.08,13.31a4.92,4.92,0,0,0,2.63.82,4.66,4.66,0,0,0,4.65-4.66c0-.1,0-1.1,0-1.1v-.89a1.51,1.51,0,0,1,1.51-1.51,1.48,1.48,0,0,1,1,.4"/></g></g></svg>